<svg xmlns="http://www.w3.org/2000/svg" viewBox="0 0 512 512"><path d="M0 0h512v512H0z"/><path fill="#fff" d="M255.95 27.11l-75.348 80.506 150.7 1.168-75.35-81.674zM25 102.89v67.996l19.527 26.004h71.06L135 170.9v-68.01h-14v23h-18v-23H89v23H71v-23H57v23H39v-23H25zm352 7.007v68l19.527 26h71.06L487 177.907v-68.01h-14v15.993h-18v-15.993h-14v15.993h-18v-15.993h-14v15.993h-18v-15.993h-14zm-176 15.877V260.89h110V126.628l-110-.854zm55 20.116c8 0 16 4 16 12v32h-32v-32c0-8 8-12 16-12zm-215 69v270h78v-270H41zm352 7.007V484.89h78V221.897h-78zM56 241.89c4 0 8 4 8 12v32H48v-32c0-8 4-12 8-12zm400 0c4 0 8 4 8 12v32h-16v-32c0-8 4-12 8-12zm-303 37v23h-16v183h87v-55c0-24 16-36 32-36s32 12 32 36v55h87v-183h-16v-23h-14v23h-18v-23h-14v23h-18v-23h-14v23h-18v-23h-14v23h-18v-23h-14v23h-18v-23h-14v23h-18v-23h-14zm-49 38.83c4 0 8 4 8 12v32H96v-32c0-8 4-12 8-12zm72 4.17c8 0 16 4 16 12v32h-32v-32c0-8 8-12 16-12zm80 0c8 0 16 4 16 12v32h-32v-32c0-8 8-12 16-12zm80 0c8 0 16 4 16 12v32h-32v-32c0-8 8-12 16-12zm72 0c4 0 8 4 8 12v32h-16v-32c0-8 4-12 8-12zm-352 64c4 0 8 4 8 12v32H48v-32c0-8 4-12 8-12zm400 0c4 0 8 4 8 12v32h-16v-32c0-8 4-12 8-12z"/></svg>