<svg xmlns="http://www.w3.org/2000/svg" viewBox="0 0 512 512"><path d="M0 0h512v512H0z"/><path fill="#fff" d="M369.842 28.045l-56.086 69.44 33.695 21.06 55.35-68.527-32.958-21.973zm-175.2 16.22l-22.013 33.014 240.73 150.456 22.01-33.015-73.247-45.78L407 92.843v-20.52l-46 53.653v22.26L194.64 44.265zM169 96.237v26.774l67.117 41.947 14.37-17.792L169 96.238zm96.863 60.54L45.2 429.983l32.958 21.973L299.56 177.838l-33.697-21.06zm56.29 35.18v26.774L407 271.762v-26.774l-84.848-53.03zM304 204.614L88.848 470.38v18.462L304 224v-19.387zm135 17.112l-14 21v15.55l14-21v-15.55zM41 448.815V475.1l30 19.375v-25.66l-30-20z"/></svg>