<svg xmlns="http://www.w3.org/2000/svg" viewBox="0 0 512 512"><path d="M0 0h512v512H0z"/><path d="M272.415 462.89c-10.763.808-20.181.954-30.743.143-84.844-6.52-67.864-31.928-98.124-47.951-32.78-17.358-68.55-33.313-89.85-67.02-13.834-21.89 8.853-139.345 8.853-139.345-16.015-5.431-22.858-14.2-29.954-25.013-5.133-7.821-23.18-50.704-15.21-82.137 2-7.881 9.857-37.716 32.276-49.566 8.494-4.49 36.766-13.471 96.72 32.11l30.98-9.116c25.682-6.047 54.121-10.356 78.312-10.38 25.985 1.377 55.635 3.565 78.961 10.38l30.981 9.116c59.953-45.581 88.226-36.6 96.72-32.11 22.42 11.85 30.277 41.685 32.275 49.566 7.971 31.433-10.077 74.316-15.209 82.137-7.097 10.814-13.939 19.582-29.954 25.013 0 0 22.687 117.456 8.854 139.346-21.3 33.706-57.07 49.66-89.852 67.019-30.009 15.89-13.516 41.608-96.036 47.808zm-10.907-155.151c40.27 2.33 70.482 51.359 70.482 87.316 0 36.84-33.814 46.098-75.464 46.098s-75.464-9.258-75.464-46.098c0-34.758 32.1-81.731 70.482-86.93v-7.227c-15.532-1.128-29.559-6.424-29.559-17.804 0-4.902 2.231-14.735 6.013-19.474 6.225-7.8 16.65-9.49 28.237-9.49 11.514 0 21.5 1.613 27.445 9.343 3.673 4.776 5.805 14.669 5.805 19.62 0 12.2-10.938 17.409-27.977 17.984zm59.7-127.518c12.076-5.994 26.364-1.83 31.885 9.293 5.521 11.123.2 25.02-11.878 31.015-12.076 5.994-51.578.483-51.578.483s19.494-34.796 31.571-40.791zm-130.416 0c-12.077-5.994-26.364-1.83-31.885 9.293-5.522 11.123-.2 25.02 11.877 31.015 12.077 5.994 51.58.483 51.58.483s-19.496-34.796-31.572-40.791zM441.84 97.388c4.892 0 6.275 13.189 5.864 19.55-1.75 27.126-4.472 43.802-9.364 43.802-2.7 0-6.519-14.502-12.539-27.23-4.89-10.338-12.422-18.996-12.422-21.853 0-6.375 23.568-14.27 28.461-14.27zm-371.678 0c-4.893 0-6.275 13.189-5.865 19.55 1.75 27.126 4.472 43.802 9.365 43.802 2.7 0 6.52-14.502 12.538-27.23 4.89-10.338 12.422-18.996 12.422-21.853 0-6.375-23.568-14.27-28.46-14.27z" clip-rule="evenodd" fill="#fff" fill-rule="evenodd"/></svg>